<?xml version="1.0" encoding="UTF-8"?>
<svg id="_图层_2" data-name="图层 2" xmlns="http://www.w3.org/2000/svg" viewBox="0 0 368.5 368.5">
  <defs>
    <style>
      .cls-1 {
        fill: #fff;
      }

      .cls-2 {
        fill: #c30d23;
      }
    </style>
  </defs>
  <g id="_图层_1-2" data-name="图层 1">
    <rect class="cls-1" width="368.5" height="368.5" rx="113.39" ry="113.39"/>
    <path class="cls-2" d="M186.38,226.95l96.06,98.78h43.54c-22.92-21.94-45.86-43.88-68.78-65.85-13.14-12.54-26.27-25.14-39.41-37.71-2.63-2.5-5.27-4.97-7.9-7.47,0,0,0-.03-.03-.03-2.32-2.15-4.58-4.37-6.83-6.59-.31-.35-.66-.66-.97-.98-1.29-1.27-2.95-2.82-4.83-4.65-1.91-1.84-3.98-3.89-6.02-6.11-.69-.73-1.35-1.49-2.01-2.28-.63-.7-1.19-1.43-1.79-2.18-.06-.06-.09-.1-.13-.16-.25-.28-.47-.6-.72-.92-.44-.6-.91-1.2-1.32-1.84l-.03-.03c-.41-.63-.81-1.24-1.19-1.87h-.03c-.34-.63-.72-1.27-1.07-1.9-.31-.63-.63-1.27-.91-1.9-1-2.34-1.57-4.65-1.5-6.87,.09-3.61,1.82-7,6.05-9.85,11.76-7.92,33.36-18.33,33.36-18.33l-29.44-.47c-1.76-.06-5.61-3.42-7.21-4.21-6.33-3.17-13.1-5.48-20.06-6.84-19.75-3.83-39.5,1.08-52.86,16.62-2.98,3.48-5.67,7.22-8.09,11.11,0,0-32.51,47.94,0,99.8,8.15,12.7,19.31,23.49,31.98,31.79,12.01,7.88,25.49,13.55,39.09,18.05,8.4,2.75,16.87,5.22,25.46,7.22l-70.79-72.82h24.11l75.02,77.16c10.41,.63,20.82,.32,31.22,.16l-96.12-98.82-13.29-13.68h24.14l13.29,13.68Zm-20.06-63.1c-3.73,0-6.77-3.07-6.77-6.84s3.04-6.81,6.77-6.81,6.74,3.04,6.74,6.81-3.04,6.84-6.74,6.84Zm-78.47-.92s5.24-7.98,14.42-17.13v-28.98c0-13.11,10.52-23.74,23.5-23.74h58.98c10.38,0,17.96,.98,22.73,2.98,13.17,5.38,19.78,17.57,19.78,36.57,0,1.74-.06,3.45-.16,5.13-.44,8.33-1.97,15.36-4.67,21.02-2.07,4.4-4.8,8.01-8.24,10.8-4.73,3.67-12.32,5.86-22.76,6.52-.34,.35-.44,.54-.44,.54v.03c0,.32,.16,2.88,4.51,8.49,3.39,4.31,7.81,8.55,11.04,11.62,1.1,1.05,2.07,1.99,2.88,2.79,3.32,3.33,6.87,6.68,10.28,9.88,1.79,1.68,3.54,3.36,5.3,5.03l9.31,8.93c.81-.22,1.63-.44,2.41-.7,9.37-2.82,18.31-7.92,26.71-15.29,9.25-8.2,16.49-18.77,21.69-31.66,5.17-12.89,7.77-26.56,7.77-41.03,0-17.25-3.95-33.28-11.79-48-10.66-19.57-25.24-32.45-43.77-38.69-10.94-3.67-29.19-5.51-54.7-5.51H66.02c-12.98,0-23.5,10.63-23.5,23.74V325.98h59.75v-43.95c-8.5-9.12-14.42-16.5-14.42-16.5-33.39-53.32,0-102.61,0-102.61Z"/>
  </g>
</svg>